<svg width="24" height="24" viewBox="0 0 24 24" fill="none" xmlns="http://www.w3.org/2000/svg">
<path d="M12 2.41064C8.6856 2.41064 6 5.08544 6 8.39864C6 14.1274 12 21.5986 12 21.5986C12 21.5986 18 14.1262 18 8.39864C18 5.08664 15.3144 2.41064 12 2.41064ZM12 11.7118C11.1407 11.7118 10.3166 11.3705 9.70897 10.7629C9.10136 10.1553 8.76 9.33115 8.76 8.47184C8.76 7.61254 9.10136 6.78844 9.70897 6.18082C10.3166 5.5732 11.1407 5.23184 12 5.23184C12.8593 5.23184 13.6834 5.5732 14.291 6.18082C14.8986 6.78844 15.24 7.61254 15.24 8.47184C15.24 9.33115 14.8986 10.1553 14.291 10.7629C13.6834 11.3705 12.8593 11.7118 12 11.7118Z" fill="#F3C653"/>
</svg>
